# xmcd CD database file
#
# Track frame offsets:
#	150
#	20702
#	38177
#	54500
#	71790
#	89902
#	110510
#	131372
#	147180
#	165415
#	185187
#	202372
#	227207
#	258802
#	278555
#	297600
#	316752
#
# Disc length: 4450 seconds
#
# Revision: 3
# Processed by: cddbd v1.5PL3 Copyright (c) Steve Scherf et al.
# Submitted via: CDex 1.50Beta7
#
DISCID=0b116011
DTITLE=菊池桃子 - Premium Collection "Legend" [CD1]
DYEAR=2003
DGENRE=Pop
TTITLE0=青春のいじわる
TTITLE1=MAY SICK
TTITLE2=SUMMER EYES
TTITLE3=スターダスト・レクイエム
TTITLE4=雪にかいた LOVE LETTER
TTITLE5=ANOTHER ONE
TTITLE6=Ocean Side
TTITLE7=Shadow Surfer
TTITLE8=Blind Curve
TTITLE9=Futari No Night Dive
TTITLE10=Evening Break
TTITLE11=So Many Dream
TTITLE12=I Will
TTITLE13=青春のいじわる (ピアノ・オーケストラ)
TTITLE14=SUMMER EYES (ピアノ・オーケストラ)
TTITLE15=雪にかいた LOVE LETTER (ピアノ・オーケストラ)
TTITLE16=卒業 -GRADUATION- (ピアノ・オーケストラ)
EXTD=YEAR: 2003
EXTT0=
EXTT1=
EXTT2=
EXTT3=
EXTT4=
EXTT5=
EXTT6=
EXTT7=
EXTT8=
EXTT9=
EXTT10=
EXTT11=
EXTT12=
EXTT13=
EXTT14=
EXTT15=
EXTT16=
PLAYORDER=
